<svg aria-hidden="true" style="position: absolute; width: 0; height: 0; overflow: hidden;" version="1.1" xmlns="http://www.w3.org/2000/svg" xmlns:xlink="http://www.w3.org/1999/xlink">
<defs>
<symbol id="icon-down-arrow" viewBox="0 0 32 32">
<path d="M31.574 7.699c-0.568-0.568-1.489-0.568-2.057 0l-13.517 13.517-13.517-13.517c-0.568-0.568-1.489-0.568-2.057 0s-0.568 1.489 0 2.057l14.546 14.545c0.273 0.273 0.643 0.426 1.028 0.426s0.756-0.153 1.028-0.426l14.545-14.545c0.568-0.568 0.568-1.489 0-2.057z"></path>
</symbol>

<symbol id="google" viewBox="0 0 48 48"><path fill="#FFC107" d="M43.611,20.083H42V20H24v8h11.303c-1.649,4.657-6.08,8-11.303,8c-6.627,0-12-5.373-12-12c0-6.627,5.373-12,12-12c3.059,0,5.842,1.154,7.961,3.039l5.657-5.657C34.046,6.053,29.268,4,24,4C12.955,4,4,12.955,4,24c0,11.045,8.955,20,20,20c11.045,0,20-8.955,20-20C44,22.659,43.862,21.35,43.611,20.083z"/><path fill="#FF3D00" d="M6.306,14.691l6.571,4.819C14.655,15.108,18.961,12,24,12c3.059,0,5.842,1.154,7.961,3.039l5.657-5.657C34.046,6.053,29.268,4,24,4C16.318,4,9.656,8.337,6.306,14.691z"/><path fill="#4CAF50" d="M24,44c5.166,0,9.86-1.977,13.409-5.192l-6.19-5.238C29.211,35.091,26.715,36,24,36c-5.202,0-9.619-3.317-11.283-7.946l-6.522,5.025C9.505,39.556,16.227,44,24,44z"/><path fill="#1976D2" d="M43.611,20.083H42V20H24v8h11.303c-0.792,2.237-2.231,4.166-4.087,5.571c0.001-0.001,0.002-0.001,0.003-0.002l6.19,5.238C36.971,39.205,44,34,44,24C44,22.659,43.862,21.35,43.611,20.083z"/>
</symbol>

<symbol id="quote" viewBox="0 0 32 32">
<path d="M32 28v-12h-8c0-4.41 3.586-8 8-8v-4c-6.617 0-12 5.383-12 12v12h12zM12 28v-12h-8c0-4.41 3.586-8 8-8v-4c-6.617 0-12 5.383-12 12v12h12z"></path>
</symbol>
</defs>
</svg>